<svg width="0" height="0" class="hidden">
  <symbol xmlns="http://www.w3.org/2000/svg" viewBox="0 0 24 24" id="bell">
    <path d="M19 13.586V10c0-3.217-2.185-5.927-5.145-6.742C13.562 2.52 12.846 2 12 2s-1.562.52-1.855 1.258C7.185 4.074 5 6.783 5 10v3.586l-1.707 1.707A.996.996 0 0 0 3 16v2a1 1 0 0 0 1 1h16a1 1 0 0 0 1-1v-2a.996.996 0 0 0-.293-.707L19 13.586zM19 17H5v-.586l1.707-1.707A.996.996 0 0 0 7 14v-4c0-2.757 2.243-5 5-5s5 2.243 5 5v4c0 .266.105.52.293.707L19 16.414V17zm-7 5a2.98 2.98 0 0 0 2.818-2H9.182A2.98 2.98 0 0 0 12 22z"></path>
  </symbol>
  <symbol xmlns="http://www.w3.org/2000/svg" viewBox="0 0 24 24" id="home">
    <path d="M5 22h14a2 2 0 0 0 2-2v-9a1 1 0 0 0-.29-.71l-8-8a1 1 0 0 0-1.41 0l-8 8A1 1 0 0 0 3 11v9a2 2 0 0 0 2 2zm5-2v-5h4v5zm-5-8.59 7-7 7 7V20h-3v-5a2 2 0 0 0-2-2h-4a2 2 0 0 0-2 2v5H5z"></path>
  </symbol>
  <symbol xmlns="http://www.w3.org/2000/svg" viewBox="0 0 24 24" id="inbox">
    <path d="M20 3H4c-1.103 0-2 .897-2 2v14a2 2 0 0 0 2 2h16a2 2 0 0 0 2-2V5c0-1.103-.897-2-2-2zm-1 9h-3.142c-.446 1.722-1.997 3-3.858 3s-3.412-1.278-3.858-3H4V5h16v7h-1z"></path>
  </symbol>
  <symbol xmlns="http://www.w3.org/2000/svg" viewBox="0 0 24 24" id="profile">
    <path d="M12 2a5 5 0 1 0 5 5 5 5 0 0 0-5-5zm0 8a3 3 0 1 1 3-3 3 3 0 0 1-3 3zm9 11v-1a7 7 0 0 0-7-7h-4a7 7 0 0 0-7 7v1h2v-1a5 5 0 0 1 5-5h4a5 5 0 0 1 5 5v1z"></path>
  </symbol>
  <symbol xmlns="http://www.w3.org/2000/svg" viewBox="0 0 24 24" id="share">
    <path d="M5.5 15a3.51 3.51 0 0 0 2.36-.93l6.26 3.58a3.06 3.06 0 0 0-.12.85 3.53 3.53 0 1 0 1.14-2.57l-6.26-3.58a2.74 2.74 0 0 0 .12-.76l6.15-3.52A3.49 3.49 0 1 0 14 5.5a3.35 3.35 0 0 0 .12.85L8.43 9.6A3.5 3.5 0 1 0 5.5 15zm12 2a1.5 1.5 0 1 1-1.5 1.5 1.5 1.5 0 0 1 1.5-1.5zm0-13A1.5 1.5 0 1 1 16 5.5 1.5 1.5 0 0 1 17.5 4zm-12 6A1.5 1.5 0 1 1 4 11.5 1.5 1.5 0 0 1 5.5 10z"></path>
  </symbol>
  <symbol xmlns="http://www.w3.org/2000/svg" viewBox="0 0 24 24" id="trash">
    <path d="M5 20a2 2 0 0 0 2 2h10a2 2 0 0 0 2-2V8h2V6h-4V4a2 2 0 0 0-2-2H9a2 2 0 0 0-2 2v2H3v2h2zM9 4h6v2H9zM8 8h9v12H7V8z"></path>
    <path d="M9 10h2v8H9zm4 0h2v8h-2z"></path>
  </symbol>
</svg>